HIERARCHY
ROOT Hips
{
	OFFSET -3.958830 18.904000 13.208200
	CHANNELS 6 Xposition Yposition Zposition Zrotation Yrotation Xrotation 
	JOINT LHipJoint
	{
		OFFSET 0.000000 0.000000 0.000000
		CHANNELS 3 Zrotation Yrotation Xrotation
		JOINT LeftUpLeg
		{
			OFFSET 1.800000 -1.400000 0.085000
			CHANNELS 3 Zrotation Yrotation Xrotation
			JOINT LeftLeg
			{
				OFFSET 2.215000 -6.000000 0.000000
				CHANNELS 3 Zrotation Yrotation Xrotation
				JOINT LeftFoot
				{
					OFFSET 2.500000 -6.900000 0.000000
					CHANNELS 3 Zrotation Yrotation Xrotation
					JOINT LeftToeBase
					{
						OFFSET 0.200000 -0.500000 1.950000
						CHANNELS 3 Zrotation Yrotation Xrotation
						End Site
						{
							OFFSET 0.000000 0.000000 0.000000
						}
					}
				}
			}
		}
	}
	JOINT RHipJoint
	{
		OFFSET 0.000000 0.000000 0.000000
		CHANNELS 3 Zrotation Yrotation Xrotation
		JOINT RightUpLeg
		{
			OFFSET -1.800000 -1.400000 0.085000
			CHANNELS 3 Zrotation Yrotation Xrotation
			JOINT RightLeg
			{
				OFFSET -2.215000 -6.000000 0.000000
				CHANNELS 3 Zrotation Yrotation Xrotation
				JOINT RightFoot
				{
					OFFSET -2.500000 -6.900000 0.000000
					CHANNELS 3 Zrotation Yrotation Xrotation
					JOINT RightToeBase
					{
						OFFSET -0.200000 -0.500000 1.950000
						CHANNELS 3 Zrotation Yrotation Xrotation
						End Site
						{
							OFFSET 0.000000 0.000000 0.000000
						}
					}
				}
			}
		}
	}
	JOINT LowerBack
	{
		OFFSET 0.000000 0.000000 0.000000
		CHANNELS 3 Zrotation Yrotation Xrotation
		JOINT Spine
		{
			OFFSET -0.087000 1.940000 -0.288900
			CHANNELS 3 Zrotation Yrotation Xrotation
			JOINT Spine1
			{
				OFFSET 0.000000 1.950000 0.060000
				CHANNELS 3 Zrotation Yrotation Xrotation
				JOINT Neck
				{
					OFFSET 0.000000 0.000000 0.000000
					CHANNELS 3 Zrotation Yrotation Xrotation
					JOINT Neck1
					{
						OFFSET 0.000000 1.600000 0.340000
						CHANNELS 3 Zrotation Yrotation Xrotation
						JOINT Head
						{
							OFFSET 0.000000 1.667000 -0.240000
							CHANNELS 3 Zrotation Yrotation Xrotation
							End Site
							{
								OFFSET 0.000000 0.000000 0.000000
							}
						}
					}
				}
				JOINT LeftShoulder
				{
					OFFSET 0.000000 0.000000 0.000000
					CHANNELS 3 Zrotation Yrotation Xrotation
					JOINT LeftArm
					{
						OFFSET 2.700000 1.550000 -0.730000
						CHANNELS 3 Zrotation Yrotation Xrotation
						JOINT LeftForeArm
						{
							OFFSET 5.450000 0.000000 0.000000
							CHANNELS 3 Zrotation Yrotation Xrotation
							JOINT LeftHand
							{
								OFFSET 3.450000 0.000000 0.000000
								CHANNELS 3 Zrotation Yrotation Xrotation
								JOINT LeftHandIndex1
								{
									OFFSET 0.750000 0.000000 0.000000
									CHANNELS 3 Zrotation Yrotation Xrotation
									End Site
									{
										OFFSET 0.000000 0.000000 0.000000
									}
								}
							}
						}
					}
				}
				JOINT RightShoulder
				{
					OFFSET 0.000000 0.000000 0.000000
					CHANNELS 3 Zrotation Yrotation Xrotation
					JOINT RightArm
					{
						OFFSET -2.700000 1.550000 -0.730000
						CHANNELS 3 Zrotation Yrotation Xrotation
						JOINT RightForeArm
						{
							OFFSET -5.450000 0.000000 0.000000
							CHANNELS 3 Zrotation Yrotation Xrotation
							JOINT RightHand
							{
								OFFSET -3.450000 0.000000 0.000000
								CHANNELS 3 Zrotation Yrotation Xrotation
								JOINT RightHandIndex1
								{
									OFFSET -0.750000 0.000000 0.000000
									CHANNELS 3 Zrotation Yrotation Xrotation
									End Site
									{
										OFFSET 0.000000 0.000000 0.000000
									}
								}
							}
						}
					}
				}
			}
		}
	}
}
MOTION
Frames: 13
Frame Time: 0.016667
-0.923870 15.381950 -1.784040 -1.293276 -25.623330 -17.021128 -14.790342 13.071622 2.342644 28.456304 3.850893 -17.688708 17.986077 8.093585 68.404576 1.351373 11.374856 0.346286 1.040360 0.798670 1.034900 18.701382 -10.795338 3.884600 -43.643334 3.084426 -28.582830 10.713844 -13.305552 33.658654 -1.011366 -6.539066 1.689233 0.134920 -0.693060 0.388490 -4.824094 -0.009108 -8.385104 50.923004 -4.461208 16.734863 -2.944449 -2.465375 14.835480 4.963605 7.027615 -23.852665 17.907965 -13.086743 49.181431 -0.630520 -3.622750 -27.380920 -6.599695 -33.460248 17.836386 -51.807096 3.887153 -7.401933 16.465245 -18.203984 -3.161225 -2.749547 3.394645 0.922340 -0.524780 0.772620 0.121350 -5.809150 32.964261 12.400427 49.255681 38.952725 -8.294290 -22.490456 48.548428 -14.096139 1.916035 -1.544649 0.325310 -0.237490 -0.548870 -0.243080 
-0.943610 15.354080 -1.787080 -1.858288 -23.459719 -18.134222 -14.779283 12.990463 2.467993 29.813905 3.704068 -18.091796 17.955445 8.091857 68.725559 1.435027 11.428239 0.253336 0.984610 0.783680 0.943550 18.725185 -10.891547 3.657540 -43.416424 2.735637 -26.998484 9.669849 -13.846609 35.703103 -1.056391 -6.865350 1.534880 0.056760 -0.683000 0.543620 -4.844675 0.043479 -8.406083 50.440379 -4.112572 15.962889 -4.038931 -2.002526 15.066205 5.047407 7.011507 -23.937832 17.442510 -11.955769 49.523193 -1.744580 -2.518930 -26.606000 -6.121691 -34.093603 18.329233 -48.917419 4.391314 -8.646743 19.958383 -23.713627 -4.965416 -2.777229 3.554140 0.833810 -0.465720 0.794370 0.070470 -6.536815 33.380490 12.325351 49.961547 39.284242 -6.100744 -21.794130 44.101874 -12.176758 1.982935 -1.622482 0.466570 -0.382790 -0.461200 -0.179480 
-0.975510 15.321660 -1.796090 -2.420269 -18.968812 -20.384719 -14.744155 12.835867 2.670791 31.600591 3.126044 -18.783544 17.492139 8.189504 68.973622 1.148361 11.742250 0.122076 0.757800 0.473810 0.844420 18.776085 -11.136557 3.203975 -43.098560 2.149241 -23.517720 7.274187 -14.106768 38.547924 -0.993635 -7.247716 1.441018 -0.004760 -0.499020 0.507220 -4.920678 0.219565 -8.399913 48.969165 -3.628914 15.150035 -5.474058 -1.324405 16.675120 5.384436 5.968541 -23.402223 13.910142 -7.697259 48.713290 -4.350670 0.510610 -26.499250 -4.765891 -35.504039 18.272250 -41.686291 3.362519 -9.122141 23.564449 -29.392686 -7.611725 -2.954289 3.300906 0.911750 -0.319870 0.616040 -0.080520 -8.082730 34.690039 12.258914 49.964694 40.269347 -3.357589 -22.176742 35.893246 -9.820214 1.918379 -1.497529 0.243330 -0.239380 -0.199130 -0.301030 
-1.000040 15.281140 -1.778920 -2.956386 -12.915027 -23.334179 -14.686940 12.627763 2.818930 33.143245 2.107651 -19.182653 16.977070 7.948647 69.023527 0.859747 11.945295 0.033687 0.666630 0.262730 0.865150 18.848354 -11.503400 2.709526 -43.261874 1.205144 -19.009248 4.008982 -14.159645 42.390580 -1.051819 -7.730210 1.259579 0.010480 -0.418400 0.450920 -5.061465 0.600687 -8.348851 46.776117 -3.136350 14.462450 -8.014206 0.035727 18.339484 5.283649 4.678277 -22.695146 9.966762 -4.751948 47.563775 -4.139890 1.885110 -28.316960 -1.570720 -37.085378 17.656572 -33.024638 1.010550 -10.348333 27.402100 -35.367744 -10.969372 -3.006469 3.125484 1.053040 -0.290260 0.512440 -0.170340 -10.417969 36.041050 12.222717 51.273455 39.213640 -1.816060 -18.811805 32.359761 -7.657780 1.838401 -1.412764 0.022090 -0.114590 -0.059950 -0.438170 
-1.031930 15.235790 -1.733390 -3.452372 -5.081535 -24.968510 -14.650118 12.284310 3.070484 34.090360 0.972324 -21.389749 15.757681 8.117796 68.688792 0.701121 11.918355 0.033321 0.678610 0.229960 0.888550 18.927168 -11.820896 2.220452 -43.783213 -0.083050 -14.099360 0.592858 -13.997492 45.738358 -1.192560 -8.190921 1.121178 0.053360 -0.409150 0.393890 -5.222999 1.086593 -8.380363 42.417269 -1.475478 13.513785 -9.618392 2.662572 17.748711 3.724117 4.108570 -21.581536 7.572541 -4.309994 45.172255 -2.835620 1.949630 -30.656760 0.203774 -37.670282 14.963445 -21.340565 -3.893901 -12.217308 29.324873 -45.642412 -14.589693 -2.932484 3.016080 1.110750 -0.316550 0.469080 -0.167060 -8.732807 36.231154 12.607245 55.733064 35.004079 -1.776094 -16.434157 31.714818 -7.100561 1.821028 -1.396398 -0.072320 -0.056090 -0.048100 -0.494390 
-1.068850 15.190960 -1.703070 -3.795989 1.519931 -25.173972 -14.758906 12.212484 3.658943 35.608290 1.085775 -24.952455 13.598808 9.782313 67.788511 0.641441 11.909605 0.030910 0.633620 0.162030 0.837130 18.844802 -11.778486 1.710449 -42.537347 -0.318529 -11.060883 -3.258410 -12.844851 49.132962 -1.279655 -8.415618 1.096273 0.022630 -0.395800 0.352110 -5.047077 0.633431 -8.605171 36.155418 0.773564 14.065853 -7.704935 5.222756 14.808053 1.739485 2.772199 -21.300221 3.221516 -4.434431 47.440562 -2.082180 0.714460 -30.547770 -0.720872 -37.833324 11.190303 -12.068123 -11.393502 -11.874668 30.204955 -52.382011 -15.955566 -2.902571 2.860285 1.131590 -0.341480 0.436200 -0.159080 -3.622284 37.308712 13.922867 56.540220 28.248452 -2.403778 -12.687541 30.971008 -5.515940 1.860512 -1.327027 -0.110910 -0.034500 -0.025270 -0.496850 
-1.126000 15.140330 -1.702930 -3.228854 9.336481 -24.664931 -14.971365 12.220578 4.262428 35.022232 1.070965 -29.945674 12.138630 10.816124 66.662039 0.620848 11.724375 0.081799 0.626470 0.170730 0.829130 18.647886 -11.611448 1.365884 -41.953072 -0.405442 -8.285146 -5.887756 -12.144029 52.359782 -1.392976 -8.713285 1.053411 0.002650 -0.442470 0.285600 -4.635754 -0.066790 -8.950051 26.163919 3.425896 15.219518 -3.652781 7.006714 11.528935 -0.172995 1.343220 -20.483192 -1.640724 -3.509195 50.500124 -2.252010 0.597090 -30.279490 -0.736747 -37.760703 6.854809 -5.835992 -21.604540 -9.570573 33.123796 -54.540562 -16.608946 -2.901198 2.732436 1.107290 -0.389240 0.427750 -0.155570 0.752899 38.071404 15.477133 56.522236 23.011411 -1.671142 -10.995121 27.916641 -4.113440 1.965183 -1.289906 -0.096980 -0.045950 -0.058400 -0.489310 
-1.166140 15.105660 -1.697690 -2.995730 15.844856 -23.671032 -15.256074 12.256123 4.849156 34.046302 1.376779 -35.122095 11.581572 11.490948 65.775779 0.644169 11.697189 0.280282 0.508060 0.090070 0.747840 18.391662 -11.362320 1.072572 -40.507445 -0.012642 -6.575966 -7.655801 -11.500126 55.250976 -1.457609 -8.918902 1.184254 -0.030090 -0.235790 0.111290 -3.997011 -0.902175 -9.149175 17.653191 5.545694 16.269972 -0.374249 8.441440 8.989502 -1.646743 -1.404648 -19.241124 -9.663111 -0.677023 51.044134 -2.499290 0.642680 -28.652900 -0.584905 -37.133874 2.254992 -1.535031 -32.747883 -6.243202 37.075123 -53.892577 -17.270110 -3.071751 2.336169 1.076180 -0.330530 0.352450 -0.053020 4.653984 39.172123 17.515260 55.766632 18.112684 -2.307897 -9.856035 27.401211 -3.533030 1.983206 -1.098801 -0.246870 0.246840 -0.079820 -0.428640 
-1.196270 15.074580 -1.693170 -2.579596 22.460802 -22.624617 -15.530206 12.354547 5.197948 31.246475 1.123551 -40.381754 13.031632 10.529088 65.123376 0.592583 11.565859 0.439958 0.484610 0.075060 0.704000 18.164133 -11.053288 0.832834 -39.572771 0.570265 -4.778137 -8.325533 -11.310168 57.461568 -1.503321 -9.186996 1.226859 -0.003850 -0.054340 0.027420 -3.300561 -1.918215 -8.975961 9.402408 7.449091 16.782856 3.445828 9.221139 8.889951 -3.851246 -5.950796 -17.338301 -20.659835 3.349456 45.382367 -1.957360 0.904350 -27.512790 1.635705 -34.951699 -2.095421 2.371743 -44.197688 -4.140315 42.056468 -51.161961 -18.674800 -3.323560 2.212432 1.022390 -0.259090 0.262720 0.038760 7.867734 39.920760 19.443640 53.509939 14.157034 -2.039824 -7.897610 23.900912 -2.454376 2.014313 -1.022086 -0.340080 0.434920 -0.094310 -0.375160 
-1.234690 15.040290 -1.697450 -1.703917 27.892477 -21.335250 -15.722864 12.377211 5.362835 27.986626 0.863457 -44.696344 15.061651 9.343830 64.600943 0.498053 11.445314 0.449631 0.506800 0.091670 0.694210 18.024052 -10.720531 0.758125 -39.619528 1.502269 -3.557839 -6.902468 -12.252922 58.519970 -1.528391 -9.500341 1.086839 0.040130 -0.018370 0.096140 -2.721951 -2.704600 -8.739242 2.215803 9.921298 17.179025 6.331490 10.424158 10.970723 -5.925192 -8.213699 -15.998257 -25.667732 4.567702 39.589091 -4.265020 1.507500 -26.209060 3.127803 -32.657309 -3.890583 14.273606 -55.336450 -9.664799 46.349629 -45.522753 -18.555197 -3.624659 2.397558 0.950690 -0.190390 0.213410 0.029010 10.564931 39.091821 20.340236 50.076582 11.162943 -2.312683 -5.565966 22.199793 -1.808046 2.016494 -1.083644 -0.315900 0.386200 -0.057250 -0.368180 
-1.286780 15.032550 -1.726020 -1.074687 33.118194 -20.944870 -15.788084 12.459364 5.408044 24.488563 -0.162539 -47.423472 16.596651 7.992803 63.302415 0.360506 11.196211 0.553972 0.482330 0.043200 0.695440 17.951817 -10.533078 0.787225 -39.658749 2.176839 -1.780862 -5.062594 -13.566439 59.349780 -1.580099 -9.744872 1.024686 0.052420 0.045120 0.062470 -2.425754 -3.273883 -8.562941 -2.765690 11.960645 19.628723 8.171489 11.384737 13.404870 -7.154568 -9.627845 -16.437246 -30.016738 6.281591 37.325049 -3.825740 1.575160 -27.227340 2.885476 -29.881527 -2.049754 39.304598 -62.337252 -28.346267 48.710750 -39.330944 -17.102538 -3.767638 2.370988 0.984480 -0.183480 0.182130 0.027560 13.278152 37.104571 20.010823 45.681504 9.185031 -2.936904 -3.255952 20.995408 -1.245487 2.024873 -1.002364 -0.393530 0.481910 -0.022950 -0.378540 
-1.328610 15.039100 -1.761710 -1.408304 38.117250 -21.303875 -15.801462 12.468790 5.564295 22.176488 -1.879759 -49.574685 17.088992 6.937911 62.049401 0.292569 10.835347 0.651117 0.573220 0.153300 0.711660 17.934909 -10.391179 0.787132 -39.351518 1.796928 0.189300 -3.634941 -14.857836 59.589062 -1.684191 -9.962566 0.948061 0.117050 0.007330 0.088440 -2.238072 -3.759115 -8.463081 -6.020587 12.544269 21.936451 9.591320 10.810317 15.653195 -8.034784 -9.830678 -16.906378 -31.683612 8.168385 37.330280 -2.248520 2.434050 -27.340650 3.065389 -28.085022 0.398323 60.791805 -61.978256 -45.322232 50.379590 -34.682496 -15.967525 -3.776371 2.447670 0.981560 -0.208080 0.214850 0.071970 14.406592 35.283217 18.899725 42.160790 9.471031 -2.606796 -1.604009 19.220037 -0.873191 2.057871 -1.060927 -0.352240 0.437800 -0.076440 -0.364040 
-1.350970 15.042890 -1.774790 -0.575309 40.029963 -20.174647 -15.825545 12.394066 5.693045 21.817021 -2.607538 -50.697775 15.818895 7.693091 61.712169 0.284031 10.766238 0.686524 0.672280 0.307350 0.749000 17.951741 -10.222808 0.770771 -39.758989 1.356345 -0.243592 -3.135225 -15.374849 59.779958 -1.713161 -10.057117 0.922666 0.222880 0.033330 0.076020 -2.102740 -4.102925 -8.403308 -8.822710 13.159011 22.367904 11.299024 10.365951 17.318001 -9.661127 -10.042340 -16.292953 -32.181405 9.100550 36.232058 -0.820770 3.129170 -26.186050 3.148163 -25.686268 1.021138 71.880208 -60.344309 -54.104977 49.159661 -31.219017 -14.456113 -3.788129 2.468989 0.906440 -0.178450 0.212070 0.129530 16.805556 32.906793 17.761000 39.115034 10.250323 -1.920160 -1.050715 17.001622 -0.792741 2.088431 -1.122236 -0.326700 0.468490 -0.149990 -0.326460 
